<svg id="Calque_1" data-name="Calque 1" xmlns="http://www.w3.org/2000/svg" xmlns:xlink="http://www.w3.org/1999/xlink" viewBox="0 0 22.13 15.17"><defs><style>.cls-1{fill:none;}.cls-2{clip-path:url(#clip-path);}.cls-3{opacity:0.8;}.cls-4{clip-path:url(#clip-path-3);}.cls-5{fill:#c79737;}.cls-6{clip-path:url(#clip-path-4);}.cls-7{fill:#249185;}.cls-8{clip-path:url(#clip-path-5);}.cls-9{clip-path:url(#clip-path-6);}.cls-10{clip-path:url(#clip-path-7);}.cls-11{fill:#c7285f;}.cls-12{clip-path:url(#clip-path-8);}.cls-13{clip-path:url(#clip-path-9);}.cls-14{fill:#bd7795;}.cls-15{clip-path:url(#clip-path-10);}.cls-16{clip-path:url(#clip-path-11);}.cls-17{fill:#277ab6;}.cls-18{clip-path:url(#clip-path-12);}.cls-19{clip-path:url(#clip-path-13);}.cls-20{clip-path:url(#clip-path-14);}.cls-21{clip-path:url(#clip-path-15);}.cls-22{clip-path:url(#clip-path-16);}.cls-23{clip-path:url(#clip-path-17);}.cls-24{clip-path:url(#clip-path-18);}.cls-25{clip-path:url(#clip-path-19);}.cls-26{clip-path:url(#clip-path-20);}.cls-27{clip-path:url(#clip-path-21);}.cls-28{clip-path:url(#clip-path-22);}.cls-29{clip-path:url(#clip-path-23);}.cls-30{clip-path:url(#clip-path-24);}.cls-31{clip-path:url(#clip-path-25);}.cls-32{clip-path:url(#clip-path-26);}.cls-33{clip-path:url(#clip-path-27);}.cls-34{clip-path:url(#clip-path-28);}.cls-35{clip-path:url(#clip-path-29);}.cls-36{clip-path:url(#clip-path-30);}.cls-37{clip-path:url(#clip-path-31);}.cls-38{clip-path:url(#clip-path-32);}.cls-39{clip-path:url(#clip-path-33);}.cls-40{clip-path:url(#clip-path-34);}.cls-41{clip-path:url(#clip-path-35);}.cls-42{clip-path:url(#clip-path-36);}.cls-43{clip-path:url(#clip-path-37);}.cls-44{clip-path:url(#clip-path-38);}.cls-45{clip-path:url(#clip-path-39);}.cls-46{clip-path:url(#clip-path-40);}.cls-47{clip-path:url(#clip-path-41);}.cls-48{clip-path:url(#clip-path-42);}.cls-49{clip-path:url(#clip-path-43);}.cls-50{clip-path:url(#clip-path-44);}.cls-51{clip-path:url(#clip-path-45);}.cls-52{clip-path:url(#clip-path-46);}.cls-53{clip-path:url(#clip-path-47);}.cls-54{clip-path:url(#clip-path-48);}.cls-55{clip-path:url(#clip-path-49);}.cls-56{clip-path:url(#clip-path-50);}.cls-57{clip-path:url(#clip-path-51);}.cls-58{clip-path:url(#clip-path-52);}.cls-59{clip-path:url(#clip-path-53);}.cls-60{clip-path:url(#clip-path-54);}.cls-61{clip-path:url(#clip-path-55);}</style><clipPath id="clip-path" transform="translate(-350 -252.97)"><rect class="cls-1" x="350" y="252.97" width="22.13" height="15.17"/></clipPath><clipPath id="clip-path-3" transform="translate(-350 -252.97)"><rect class="cls-1" x="348.33" y="253.83" width="6.96" height="4.94"/></clipPath><clipPath id="clip-path-4" transform="translate(-350 -252.97)"><rect class="cls-1" x="348.33" y="263.15" width="6.96" height="4.94"/></clipPath><clipPath id="clip-path-5" transform="translate(-350 -252.97)"><rect class="cls-1" x="350.61" y="259.82" width="6.96" height="4.94"/></clipPath><clipPath id="clip-path-6" transform="translate(-350 -252.97)"><rect class="cls-1" x="354.33" y="252.73" width="6.96" height="4.94"/></clipPath><clipPath id="clip-path-7" transform="translate(-350 -252.97)"><rect class="cls-1" x="353.9" y="256.73" width="6.96" height="4.94"/></clipPath><clipPath id="clip-path-8" transform="translate(-350 -252.97)"><rect class="cls-1" x="355.85" y="263.73" width="6.29" height="4.28"/></clipPath><clipPath id="clip-path-9" transform="translate(-350 -252.97)"><rect class="cls-1" x="349.09" y="261.44" width="6.29" height="4.28"/></clipPath><clipPath id="clip-path-10" transform="translate(-350 -252.97)"><rect class="cls-1" x="355.18" y="255.02" width="6.29" height="4.28"/></clipPath><clipPath id="clip-path-11" transform="translate(-350 -252.97)"><rect class="cls-1" x="352.43" y="251.56" width="7.03" height="5.02"/></clipPath><clipPath id="clip-path-12" transform="translate(-350 -252.97)"><rect class="cls-1" x="351.18" y="263.87" width="6.29" height="4.28"/></clipPath><clipPath id="clip-path-13" transform="translate(-350 -252.97)"><rect class="cls-1" x="349.33" y="252.79" width="5.39" height="3.37"/></clipPath><clipPath id="clip-path-14" transform="translate(-350 -252.97)"><rect class="cls-1" x="354.84" y="251.93" width="5.39" height="3.37"/></clipPath><clipPath id="clip-path-15" transform="translate(-350 -252.97)"><rect class="cls-1" x="350.57" y="263.73" width="5.39" height="3.37"/></clipPath><clipPath id="clip-path-16" transform="translate(-350 -252.97)"><rect class="cls-1" x="352.53" y="258.63" width="6.29" height="4.28"/></clipPath><clipPath id="clip-path-17" transform="translate(-350 -252.97)"><rect class="cls-1" x="353.13" y="258.22" width="5.39" height="3.37"/></clipPath><clipPath id="clip-path-18" transform="translate(-350 -252.97)"><rect class="cls-1" x="356.32" y="254.69" width="5.39" height="3.37"/></clipPath><clipPath id="clip-path-19" transform="translate(-350 -252.97)"><rect class="cls-1" x="348.24" y="262.58" width="5.39" height="3.37"/></clipPath><clipPath id="clip-path-20" transform="translate(-350 -252.97)"><rect class="cls-1" x="355.38" y="264.55" width="5.39" height="3.37"/></clipPath><clipPath id="clip-path-21" transform="translate(-350 -252.97)"><rect class="cls-1" x="350.39" y="252.68" width="6.29" height="4.28"/></clipPath><clipPath id="clip-path-22" transform="translate(-350 -252.97)"><rect class="cls-1" x="352.96" y="263.33" width="7.03" height="5.02"/></clipPath><clipPath id="clip-path-23" transform="translate(-350 -252.97)"><rect class="cls-1" x="354.61" y="263.9" width="5.03" height="3.01"/></clipPath><clipPath id="clip-path-24" transform="translate(-350 -252.97)"><rect class="cls-1" x="351.53" y="251.93" width="5.03" height="3.01"/></clipPath><clipPath id="clip-path-25" transform="translate(-350 -252.97)"><rect class="cls-1" x="348.5" y="255.47" width="5.03" height="3.01"/></clipPath><clipPath id="clip-path-26" transform="translate(-350 -252.97)"><rect class="cls-1" x="348.19" y="265.12" width="5.03" height="3.01"/></clipPath><clipPath id="clip-path-27" transform="translate(-350 -252.97)"><rect class="cls-1" x="356.95" y="265.12" width="5.03" height="3.01"/></clipPath><clipPath id="clip-path-28" transform="translate(-350 -252.97)"><rect class="cls-1" x="355.47" y="255.7" width="6.29" height="4.28"/></clipPath><clipPath id="clip-path-29" transform="translate(-350 -252.97)"><rect class="cls-1" x="348.82" y="253.73" width="6.29" height="4.28"/></clipPath><clipPath id="clip-path-30" transform="translate(-350 -252.97)"><rect class="cls-1" x="364.72" y="257.42" width="7.03" height="5.02"/></clipPath><clipPath id="clip-path-31" transform="translate(-350 -252.97)"><rect class="cls-1" x="363.75" y="251.93" width="6.29" height="4.28"/></clipPath><clipPath id="clip-path-32" transform="translate(-350 -252.97)"><rect class="cls-1" x="367.17" y="260.49" width="6.29" height="4.28"/></clipPath><clipPath id="clip-path-33" transform="translate(-350 -252.97)"><rect class="cls-1" x="360.58" y="262.44" width="6.96" height="4.94"/></clipPath><clipPath id="clip-path-34" transform="translate(-350 -252.97)"><rect class="cls-1" x="365.41" y="252.22" width="6.96" height="4.94"/></clipPath><clipPath id="clip-path-35" transform="translate(-350 -252.97)"><rect class="cls-1" x="366.63" y="255.87" width="6.29" height="4.28"/></clipPath><clipPath id="clip-path-36" transform="translate(-350 -252.97)"><rect class="cls-1" x="363.37" y="263.87" width="6.29" height="4.28"/></clipPath><clipPath id="clip-path-37" transform="translate(-350 -252.97)"><rect class="cls-1" x="360.58" y="253.02" width="6.29" height="4.28"/></clipPath><clipPath id="clip-path-38" transform="translate(-350 -252.97)"><rect class="cls-1" x="365.03" y="251.83" width="5.39" height="3.37"/></clipPath><clipPath id="clip-path-39" transform="translate(-350 -252.97)"><rect class="cls-1" x="366.66" y="259.68" width="5.39" height="3.37"/></clipPath><clipPath id="clip-path-40" transform="translate(-350 -252.97)"><rect class="cls-1" x="362.18" y="264.61" width="5.39" height="3.37"/></clipPath><clipPath id="clip-path-41" transform="translate(-350 -252.97)"><rect class="cls-1" x="366.86" y="255.02" width="5.39" height="3.37"/></clipPath><clipPath id="clip-path-42" transform="translate(-350 -252.97)"><rect class="cls-1" x="364.32" y="258.07" width="5.39" height="3.37"/></clipPath><clipPath id="clip-path-43" transform="translate(-350 -252.97)"><rect class="cls-1" x="361.75" y="262.28" width="5.39" height="3.37"/></clipPath><clipPath id="clip-path-44" transform="translate(-350 -252.97)"><rect class="cls-1" x="361.8" y="252.16" width="6.29" height="4.28"/></clipPath><clipPath id="clip-path-45" transform="translate(-350 -252.97)"><rect class="cls-1" x="361.35" y="252.62" width="5.03" height="3.01"/></clipPath><clipPath id="clip-path-46" transform="translate(-350 -252.97)"><rect class="cls-1" x="367.12" y="262.45" width="5.03" height="3.01"/></clipPath><clipPath id="clip-path-47" transform="translate(-350 -252.97)"><rect class="cls-1" x="363.58" y="258.9" width="5.03" height="3.01"/></clipPath><clipPath id="clip-path-48" transform="translate(-350 -252.97)"><rect class="cls-1" x="366.98" y="261.44" width="6.96" height="4.94"/></clipPath><clipPath id="clip-path-49" transform="translate(-350 -252.97)"><rect class="cls-1" x="366.97" y="253.22" width="6.29" height="4.28"/></clipPath><clipPath id="clip-path-50" transform="translate(-350 -252.97)"><rect class="cls-1" x="367.92" y="259.47" width="5.03" height="3.01"/></clipPath><clipPath id="clip-path-51" transform="translate(-350 -252.97)"><rect class="cls-1" x="365.09" y="264.27" width="5.84" height="3.83"/></clipPath><clipPath id="clip-path-52" transform="translate(-350 -252.97)"><rect class="cls-1" x="363.29" y="257.62" width="5.84" height="3.83"/></clipPath><clipPath id="clip-path-53" transform="translate(-350 -252.97)"><rect class="cls-1" x="368.52" y="255.62" width="5.03" height="3.01"/></clipPath><clipPath id="clip-path-54" transform="translate(-350 -252.97)"><rect class="cls-1" x="366.17" y="263.18" width="6.29" height="4.28"/></clipPath><clipPath id="clip-path-55" transform="translate(-350 -252.97)"><rect class="cls-1" x="362.03" y="254.59" width="5.03" height="3.01"/></clipPath></defs><title>favicon</title><g class="cls-2"><g class="cls-2"><g class="cls-3"><g class="cls-4"><path class="cls-5" d="M351.81,258.57a1.67,1.67,0,1,0-1.67-1.67,1.67,1.67,0,0,0,1.67,1.67" transform="translate(-350 -252.97)"/></g></g><g class="cls-3"><g class="cls-6"><path class="cls-7" d="M351.81,267.9a1.67,1.67,0,1,0-1.67-1.67,1.67,1.67,0,0,0,1.67,1.67" transform="translate(-350 -252.97)"/></g></g><g class="cls-3"><g class="cls-8"><path class="cls-5" d="M354.09,264.56a1.67,1.67,0,1,0-1.67-1.67,1.67,1.67,0,0,0,1.67,1.67" transform="translate(-350 -252.97)"/></g></g><g class="cls-3"><g class="cls-9"><path class="cls-7" d="M357.8,257.47a1.67,1.67,0,1,0-1.67-1.67,1.67,1.67,0,0,0,1.67,1.67" transform="translate(-350 -252.97)"/></g></g><g class="cls-3"><g class="cls-10"><path class="cls-11" d="M357.38,261.47a1.67,1.67,0,1,0-1.67-1.67,1.67,1.67,0,0,0,1.67,1.67" transform="translate(-350 -252.97)"/></g></g><g class="cls-3"><g class="cls-12"><path class="cls-11" d="M359,267.8a1.33,1.33,0,1,0-1.33-1.33A1.33,1.33,0,0,0,359,267.8" transform="translate(-350 -252.97)"/></g></g><g class="cls-3"><g class="cls-13"><path class="cls-14" d="M352.24,265.52a1.33,1.33,0,1,0-1.33-1.33,1.33,1.33,0,0,0,1.33,1.33" transform="translate(-350 -252.97)"/></g></g><g class="cls-3"><g class="cls-15"><path class="cls-5" d="M358.33,259.09a1.33,1.33,0,1,0-1.33-1.33,1.33,1.33,0,0,0,1.33,1.33" transform="translate(-350 -252.97)"/></g></g><g class="cls-3"><g class="cls-16"><path class="cls-17" d="M355.95,256.38a1.7,1.7,0,1,0-1.7-1.7,1.7,1.7,0,0,0,1.7,1.7" transform="translate(-350 -252.97)"/></g></g><g class="cls-3"><g class="cls-18"><path class="cls-17" d="M354.33,267.94a1.33,1.33,0,1,0-1.33-1.33,1.33,1.33,0,0,0,1.33,1.33" transform="translate(-350 -252.97)"/></g></g><g class="cls-3"><g class="cls-19"><path class="cls-11" d="M352,256a0.88,0.88,0,1,0-.88-0.88,0.88,0.88,0,0,0,.88.88" transform="translate(-350 -252.97)"/></g></g><g class="cls-3"><g class="cls-20"><path class="cls-11" d="M357.53,255.1a0.88,0.88,0,1,0-.88-0.88,0.88,0.88,0,0,0,.88.88" transform="translate(-350 -252.97)"/></g></g><g class="cls-3"><g class="cls-21"><path class="cls-11" d="M353.26,266.9a0.88,0.88,0,1,0-.88-0.88,0.88,0.88,0,0,0,.88.88" transform="translate(-350 -252.97)"/></g></g><g class="cls-3"><g class="cls-22"><path class="cls-17" d="M355.67,262.71a1.33,1.33,0,1,0-1.33-1.33,1.33,1.33,0,0,0,1.33,1.33" transform="translate(-350 -252.97)"/></g></g><g class="cls-3"><g class="cls-23"><path class="cls-14" d="M355.82,261.38a0.88,0.88,0,1,0-.88-0.88,0.88,0.88,0,0,0,.88.88" transform="translate(-350 -252.97)"/></g></g><g class="cls-3"><g class="cls-24"><path class="cls-14" d="M359,257.86a0.88,0.88,0,1,0-.88-0.88,0.88,0.88,0,0,0,.88.88" transform="translate(-350 -252.97)"/></g></g><g class="cls-3"><g class="cls-25"><path class="cls-17" d="M350.94,265.75a0.88,0.88,0,1,0-.88-0.88,0.88,0.88,0,0,0,.88.88" transform="translate(-350 -252.97)"/></g></g><g class="cls-3"><g class="cls-26"><path class="cls-5" d="M358.07,267.72a0.88,0.88,0,1,0-.88-0.88,0.88,0.88,0,0,0,.88.88" transform="translate(-350 -252.97)"/></g></g><g class="cls-3"><g class="cls-27"><path class="cls-7" d="M353.53,256.75a1.33,1.33,0,1,0-1.33-1.33,1.33,1.33,0,0,0,1.33,1.33" transform="translate(-350 -252.97)"/></g></g><g class="cls-3"><g class="cls-28"><path class="cls-11" d="M356.47,268.14a1.7,1.7,0,1,0-1.7-1.7,1.7,1.7,0,0,0,1.7,1.7" transform="translate(-350 -252.97)"/></g></g><g class="cls-3"><g class="cls-29"><path class="cls-7" d="M357.12,266.71a0.7,0.7,0,1,0-.7-0.7,0.7,0.7,0,0,0,.7.7" transform="translate(-350 -252.97)"/></g></g><g class="cls-3"><g class="cls-30"><path class="cls-14" d="M354,254.75a0.7,0.7,0,1,0-.7-0.7,0.7,0.7,0,0,0,.7.7" transform="translate(-350 -252.97)"/></g></g><g class="cls-3"><g class="cls-31"><path class="cls-14" d="M351,258.29a0.7,0.7,0,1,0-.7-0.7,0.7,0.7,0,0,0,.7.7" transform="translate(-350 -252.97)"/></g></g><g class="cls-3"><g class="cls-32"><path class="cls-14" d="M350.7,267.94a0.7,0.7,0,1,0-.7-0.7,0.7,0.7,0,0,0,.7.7" transform="translate(-350 -252.97)"/></g></g><g class="cls-3"><g class="cls-33"><path class="cls-17" d="M359.47,267.94a0.7,0.7,0,1,0-.7-0.7,0.7,0.7,0,0,0,.7.7" transform="translate(-350 -252.97)"/></g></g><g class="cls-3"><g class="cls-34"><path class="cls-17" d="M358.61,259.78a1.33,1.33,0,1,0-1.33-1.33,1.33,1.33,0,0,0,1.33,1.33" transform="translate(-350 -252.97)"/></g></g><g class="cls-3"><g class="cls-35"><path class="cls-17" d="M352,257.81a1.33,1.33,0,1,0-1.33-1.33,1.33,1.33,0,0,0,1.33,1.33" transform="translate(-350 -252.97)"/></g></g><g class="cls-3"><g class="cls-36"><path class="cls-11" d="M368.24,262.23a1.7,1.7,0,1,0-1.7-1.7,1.7,1.7,0,0,0,1.7,1.7" transform="translate(-350 -252.97)"/></g></g><g class="cls-3"><g class="cls-37"><path class="cls-17" d="M366.89,256a1.33,1.33,0,1,0-1.33-1.33,1.33,1.33,0,0,0,1.33,1.33" transform="translate(-350 -252.97)"/></g></g><g class="cls-3"><g class="cls-38"><path class="cls-17" d="M370.32,264.56a1.33,1.33,0,1,0-1.33-1.33,1.33,1.33,0,0,0,1.33,1.33" transform="translate(-350 -252.97)"/></g></g><g class="cls-3"><g class="cls-39"><path class="cls-5" d="M364.06,267.18a1.67,1.67,0,1,0-1.67-1.67,1.67,1.67,0,0,0,1.67,1.67" transform="translate(-350 -252.97)"/></g></g><g class="cls-3"><g class="cls-40"><path class="cls-5" d="M368.89,257a1.67,1.67,0,1,0-1.67-1.67,1.67,1.67,0,0,0,1.67,1.67" transform="translate(-350 -252.97)"/></g></g><g class="cls-3"><g class="cls-41"><path class="cls-7" d="M369.78,259.95a1.33,1.33,0,1,0-1.33-1.33,1.33,1.33,0,0,0,1.33,1.33" transform="translate(-350 -252.97)"/></g></g><g class="cls-3"><g class="cls-42"><path class="cls-7" d="M366.51,267.94a1.33,1.33,0,1,0-1.33-1.33,1.33,1.33,0,0,0,1.33,1.33" transform="translate(-350 -252.97)"/></g></g><g class="cls-3"><g class="cls-43"><path class="cls-7" d="M363.72,257.09a1.33,1.33,0,1,0-1.33-1.33,1.33,1.33,0,0,0,1.33,1.33" transform="translate(-350 -252.97)"/></g></g><g class="cls-3"><g class="cls-44"><path class="cls-14" d="M367.73,255a0.88,0.88,0,1,0-.88-0.88,0.88,0.88,0,0,0,.88.88" transform="translate(-350 -252.97)"/></g></g><g class="cls-3"><g class="cls-45"><path class="cls-14" d="M369.35,262.85a0.88,0.88,0,1,0-.88-0.88,0.88,0.88,0,0,0,.88.88" transform="translate(-350 -252.97)"/></g></g><g class="cls-3"><g class="cls-46"><path class="cls-14" d="M364.87,267.78a0.88,0.88,0,1,0-.88-0.88,0.88,0.88,0,0,0,.88.88" transform="translate(-350 -252.97)"/></g></g><g class="cls-3"><g class="cls-47"><path class="cls-17" d="M369.55,258.19a0.88,0.88,0,1,0-.88-0.88,0.88,0.88,0,0,0,.88.88" transform="translate(-350 -252.97)"/></g></g><g class="cls-3"><g class="cls-48"><path class="cls-17" d="M367,261.24a0.88,0.88,0,1,0-.88-0.88,0.88,0.88,0,0,0,.88.88" transform="translate(-350 -252.97)"/></g></g><g class="cls-3"><g class="cls-49"><path class="cls-17" d="M364.44,265.44a0.88,0.88,0,1,0-.88-0.88,0.88,0.88,0,0,0,.88.88" transform="translate(-350 -252.97)"/></g></g><g class="cls-3"><g class="cls-50"><path class="cls-11" d="M364.94,256.24a1.33,1.33,0,1,0-1.33-1.33,1.33,1.33,0,0,0,1.33,1.33" transform="translate(-350 -252.97)"/></g></g><g class="cls-3"><g class="cls-51"><path class="cls-5" d="M363.86,255.43a0.7,0.7,0,1,0-.7-0.7,0.7,0.7,0,0,0,.7.7" transform="translate(-350 -252.97)"/></g></g><g class="cls-3"><g class="cls-52"><path class="cls-5" d="M369.63,265.27a0.7,0.7,0,1,0-.7-0.7,0.7,0.7,0,0,0,.7.7" transform="translate(-350 -252.97)"/></g></g><g class="cls-3"><g class="cls-53"><path class="cls-5" d="M366.09,261.71a0.7,0.7,0,1,0-.7-0.7,0.7,0.7,0,0,0,.7.7" transform="translate(-350 -252.97)"/></g></g><g class="cls-3"><g class="cls-54"><path class="cls-7" d="M370.46,266.18a1.67,1.67,0,1,0-1.67-1.67,1.67,1.67,0,0,0,1.67,1.67" transform="translate(-350 -252.97)"/></g></g><g class="cls-3"><g class="cls-55"><path class="cls-11" d="M370.12,257.29a1.33,1.33,0,1,0-1.33-1.33,1.33,1.33,0,0,0,1.33,1.33" transform="translate(-350 -252.97)"/></g></g><g class="cls-3"><g class="cls-56"><path class="cls-5" d="M370.43,262.28a0.7,0.7,0,1,0-.7-0.7,0.7,0.7,0,0,0,.7.7" transform="translate(-350 -252.97)"/></g></g><g class="cls-3"><g class="cls-57"><path class="cls-14" d="M368,267.89a1.11,1.11,0,1,0-1.11-1.11,1.11,1.11,0,0,0,1.11,1.11" transform="translate(-350 -252.97)"/></g></g><g class="cls-3"><g class="cls-58"><path class="cls-14" d="M366.21,261.24a1.11,1.11,0,1,0-1.11-1.11,1.11,1.11,0,0,0,1.11,1.11" transform="translate(-350 -252.97)"/></g></g><g class="cls-3"><g class="cls-59"><path class="cls-5" d="M371,258.43a0.7,0.7,0,1,0-.7-0.7,0.7,0.7,0,0,0,.7.7" transform="translate(-350 -252.97)"/></g></g><g class="cls-3"><g class="cls-60"><path class="cls-11" d="M369.32,267.26a1.33,1.33,0,1,0-1.33-1.33,1.33,1.33,0,0,0,1.33,1.33" transform="translate(-350 -252.97)"/></g></g><g class="cls-3"><g class="cls-61"><path class="cls-17" d="M364.55,257.4a0.7,0.7,0,1,0-.7-0.7,0.7,0.7,0,0,0,.7.7" transform="translate(-350 -252.97)"/></g></g></g></g></svg>