<svg id="Calque_1" data-name="Calque 1" xmlns="http://www.w3.org/2000/svg" xmlns:xlink="http://www.w3.org/1999/xlink" viewBox="0 0 144.37 75.31"><defs><style>.cls-1{fill:none;}.cls-2{clip-path:url(#clip-path);}.cls-3{fill:#c8c8c8;}.cls-4{opacity:0.8;}.cls-5{clip-path:url(#clip-path-3);}.cls-6{fill:#c79737;}.cls-7{clip-path:url(#clip-path-4);}.cls-8{fill:#249185;}.cls-9{clip-path:url(#clip-path-5);}.cls-10{clip-path:url(#clip-path-6);}.cls-11{clip-path:url(#clip-path-7);}.cls-12{fill:#c7285f;}.cls-13{clip-path:url(#clip-path-8);}.cls-14{clip-path:url(#clip-path-9);}.cls-15{fill:#bd7795;}.cls-16{clip-path:url(#clip-path-10);}.cls-17{clip-path:url(#clip-path-11);}.cls-18{fill:#277ab6;}.cls-19{clip-path:url(#clip-path-12);}.cls-20{clip-path:url(#clip-path-13);}.cls-21{clip-path:url(#clip-path-14);}.cls-22{clip-path:url(#clip-path-15);}.cls-23{clip-path:url(#clip-path-16);}.cls-24{clip-path:url(#clip-path-17);}.cls-25{clip-path:url(#clip-path-18);}.cls-26{clip-path:url(#clip-path-19);}.cls-27{clip-path:url(#clip-path-20);}.cls-28{clip-path:url(#clip-path-21);}.cls-29{clip-path:url(#clip-path-22);}.cls-30{clip-path:url(#clip-path-23);}.cls-31{clip-path:url(#clip-path-24);}.cls-32{clip-path:url(#clip-path-25);}.cls-33{clip-path:url(#clip-path-26);}.cls-34{clip-path:url(#clip-path-27);}.cls-35{clip-path:url(#clip-path-28);}.cls-36{clip-path:url(#clip-path-29);}.cls-37{clip-path:url(#clip-path-30);}.cls-38{clip-path:url(#clip-path-31);}.cls-39{clip-path:url(#clip-path-32);}.cls-40{clip-path:url(#clip-path-33);}.cls-41{clip-path:url(#clip-path-34);}.cls-42{clip-path:url(#clip-path-35);}.cls-43{clip-path:url(#clip-path-36);}.cls-44{clip-path:url(#clip-path-37);}.cls-45{clip-path:url(#clip-path-38);}.cls-46{clip-path:url(#clip-path-39);}.cls-47{clip-path:url(#clip-path-40);}.cls-48{clip-path:url(#clip-path-41);}.cls-49{clip-path:url(#clip-path-42);}.cls-50{clip-path:url(#clip-path-43);}.cls-51{clip-path:url(#clip-path-44);}.cls-52{clip-path:url(#clip-path-45);}.cls-53{clip-path:url(#clip-path-46);}.cls-54{clip-path:url(#clip-path-47);}.cls-55{clip-path:url(#clip-path-48);}.cls-56{clip-path:url(#clip-path-49);}.cls-57{clip-path:url(#clip-path-50);}.cls-58{clip-path:url(#clip-path-51);}.cls-59{clip-path:url(#clip-path-52);}.cls-60{clip-path:url(#clip-path-53);}.cls-61{clip-path:url(#clip-path-54);}.cls-62{clip-path:url(#clip-path-55);}</style><clipPath id="clip-path" transform="translate(-333.51 -258.52)"><rect class="cls-1" x="323" y="258.52" width="154.88" height="75.76"/></clipPath><clipPath id="clip-path-3" transform="translate(-333.51 -258.52)"><rect class="cls-1" x="359.74" y="262.77" width="34.54" height="24.54"/></clipPath><clipPath id="clip-path-4" transform="translate(-333.51 -258.52)"><rect class="cls-1" x="359.74" y="309.07" width="34.54" height="24.54"/></clipPath><clipPath id="clip-path-5" transform="translate(-333.51 -258.52)"><rect class="cls-1" x="371.08" y="292.53" width="34.54" height="24.54"/></clipPath><clipPath id="clip-path-6" transform="translate(-333.51 -258.52)"><rect class="cls-1" x="389.51" y="257.34" width="34.54" height="24.54"/></clipPath><clipPath id="clip-path-7" transform="translate(-333.51 -258.52)"><rect class="cls-1" x="387.38" y="277.18" width="34.54" height="24.54"/></clipPath><clipPath id="clip-path-8" transform="translate(-333.51 -258.52)"><rect class="cls-1" x="397.07" y="311.9" width="31.23" height="21.23"/></clipPath><clipPath id="clip-path-9" transform="translate(-333.51 -258.52)"><rect class="cls-1" x="363.52" y="300.56" width="31.23" height="21.23"/></clipPath><clipPath id="clip-path-10" transform="translate(-333.51 -258.52)"><rect class="cls-1" x="393.76" y="268.67" width="31.23" height="21.23"/></clipPath><clipPath id="clip-path-11" transform="translate(-333.51 -258.52)"><rect class="cls-1" x="380.11" y="251.52" width="34.91" height="24.91"/></clipPath><clipPath id="clip-path-12" transform="translate(-333.51 -258.52)"><rect class="cls-1" x="373.92" y="312.61" width="31.23" height="21.23"/></clipPath><clipPath id="clip-path-13" transform="translate(-333.51 -258.52)"><rect class="cls-1" x="364.7" y="257.62" width="26.73" height="16.73"/></clipPath><clipPath id="clip-path-14" transform="translate(-333.51 -258.52)"><rect class="cls-1" x="392.06" y="253.37" width="26.73" height="16.73"/></clipPath><clipPath id="clip-path-15" transform="translate(-333.51 -258.52)"><rect class="cls-1" x="370.85" y="311.9" width="26.73" height="16.73"/></clipPath><clipPath id="clip-path-16" transform="translate(-333.51 -258.52)"><rect class="cls-1" x="380.58" y="286.63" width="31.23" height="21.23"/></clipPath><clipPath id="clip-path-17" transform="translate(-333.51 -258.52)"><rect class="cls-1" x="383.56" y="284.55" width="26.73" height="16.73"/></clipPath><clipPath id="clip-path-18" transform="translate(-333.51 -258.52)"><rect class="cls-1" x="399.43" y="267.03" width="26.73" height="16.73"/></clipPath><clipPath id="clip-path-19" transform="translate(-333.51 -258.52)"><rect class="cls-1" x="359.32" y="306.23" width="26.73" height="16.73"/></clipPath><clipPath id="clip-path-20" transform="translate(-333.51 -258.52)"><rect class="cls-1" x="394.75" y="316.01" width="26.73" height="16.73"/></clipPath><clipPath id="clip-path-21" transform="translate(-333.51 -258.52)"><rect class="cls-1" x="369.95" y="257.05" width="31.23" height="21.23"/></clipPath><clipPath id="clip-path-22" transform="translate(-333.51 -258.52)"><rect class="cls-1" x="382.7" y="309.92" width="34.91" height="24.91"/></clipPath><clipPath id="clip-path-23" transform="translate(-333.51 -258.52)"><rect class="cls-1" x="390.93" y="312.74" width="24.96" height="14.96"/></clipPath><clipPath id="clip-path-24" transform="translate(-333.51 -258.52)"><rect class="cls-1" x="375.62" y="253.37" width="24.96" height="14.96"/></clipPath><clipPath id="clip-path-25" transform="translate(-333.51 -258.52)"><rect class="cls-1" x="360.59" y="270.94" width="24.96" height="14.96"/></clipPath><clipPath id="clip-path-26" transform="translate(-333.51 -258.52)"><rect class="cls-1" x="359.04" y="318.85" width="24.96" height="14.96"/></clipPath><clipPath id="clip-path-27" transform="translate(-333.51 -258.52)"><rect class="cls-1" x="402.55" y="318.85" width="24.96" height="14.96"/></clipPath><clipPath id="clip-path-28" transform="translate(-333.51 -258.52)"><rect class="cls-1" x="395.18" y="272.08" width="31.23" height="21.23"/></clipPath><clipPath id="clip-path-29" transform="translate(-333.51 -258.52)"><rect class="cls-1" x="362.15" y="262.3" width="31.23" height="21.23"/></clipPath><clipPath id="clip-path-30" transform="translate(-333.51 -258.52)"><rect class="cls-1" x="441.1" y="280.58" width="34.91" height="24.91"/></clipPath><clipPath id="clip-path-31" transform="translate(-333.51 -258.52)"><rect class="cls-1" x="436.28" y="253.37" width="31.23" height="21.23"/></clipPath><clipPath id="clip-path-32" transform="translate(-333.51 -258.52)"><rect class="cls-1" x="453.29" y="295.84" width="31.23" height="21.23"/></clipPath><clipPath id="clip-path-33" transform="translate(-333.51 -258.52)"><rect class="cls-1" x="420.55" y="305.52" width="34.54" height="24.54"/></clipPath><clipPath id="clip-path-34" transform="translate(-333.51 -258.52)"><rect class="cls-1" x="444.55" y="254.78" width="34.54" height="24.54"/></clipPath><clipPath id="clip-path-35" transform="translate(-333.51 -258.52)"><rect class="cls-1" x="450.59" y="272.93" width="31.23" height="21.23"/></clipPath><clipPath id="clip-path-36" transform="translate(-333.51 -258.52)"><rect class="cls-1" x="434.39" y="312.61" width="31.23" height="21.23"/></clipPath><clipPath id="clip-path-37" transform="translate(-333.51 -258.52)"><rect class="cls-1" x="420.55" y="258.75" width="31.23" height="21.23"/></clipPath><clipPath id="clip-path-38" transform="translate(-333.51 -258.52)"><rect class="cls-1" x="442.66" y="252.85" width="26.73" height="16.73"/></clipPath><clipPath id="clip-path-39" transform="translate(-333.51 -258.52)"><rect class="cls-1" x="450.74" y="291.83" width="26.73" height="16.73"/></clipPath><clipPath id="clip-path-40" transform="translate(-333.51 -258.52)"><rect class="cls-1" x="428.48" y="316.3" width="26.73" height="16.73"/></clipPath><clipPath id="clip-path-41" transform="translate(-333.51 -258.52)"><rect class="cls-1" x="451.73" y="268.67" width="26.73" height="16.73"/></clipPath><clipPath id="clip-path-42" transform="translate(-333.51 -258.52)"><rect class="cls-1" x="439.11" y="283.84" width="26.73" height="16.73"/></clipPath><clipPath id="clip-path-43" transform="translate(-333.51 -258.52)"><rect class="cls-1" x="426.36" y="304.7" width="26.73" height="16.73"/></clipPath><clipPath id="clip-path-44" transform="translate(-333.51 -258.52)"><rect class="cls-1" x="426.59" y="254.5" width="31.23" height="21.23"/></clipPath><clipPath id="clip-path-45" transform="translate(-333.51 -258.52)"><rect class="cls-1" x="424.36" y="256.76" width="24.96" height="14.96"/></clipPath><clipPath id="clip-path-46" transform="translate(-333.51 -258.52)"><rect class="cls-1" x="453" y="305.59" width="24.96" height="14.96"/></clipPath><clipPath id="clip-path-47" transform="translate(-333.51 -258.52)"><rect class="cls-1" x="435.43" y="287.95" width="24.96" height="14.96"/></clipPath><clipPath id="clip-path-48" transform="translate(-333.51 -258.52)"><rect class="cls-1" x="452.34" y="300.56" width="34.54" height="24.54"/></clipPath><clipPath id="clip-path-49" transform="translate(-333.51 -258.52)"><rect class="cls-1" x="452.29" y="259.74" width="31.23" height="21.23"/></clipPath><clipPath id="clip-path-50" transform="translate(-333.51 -258.52)"><rect class="cls-1" x="456.97" y="290.78" width="24.96" height="14.96"/></clipPath><clipPath id="clip-path-51" transform="translate(-333.51 -258.52)"><rect class="cls-1" x="442.94" y="314.6" width="29" height="19"/></clipPath><clipPath id="clip-path-52" transform="translate(-333.51 -258.52)"><rect class="cls-1" x="434.01" y="281.57" width="29" height="19"/></clipPath><clipPath id="clip-path-53" transform="translate(-333.51 -258.52)"><rect class="cls-1" x="459.95" y="271.64" width="24.96" height="14.96"/></clipPath><clipPath id="clip-path-54" transform="translate(-333.51 -258.52)"><rect class="cls-1" x="448.33" y="309.21" width="31.23" height="21.23"/></clipPath><clipPath id="clip-path-55" transform="translate(-333.51 -258.52)"><rect class="cls-1" x="427.78" y="266.55" width="24.96" height="14.96"/></clipPath></defs><title>logo_svg_new</title><g class="cls-2"><g class="cls-2"><path class="cls-3" d="M333.51,320.46v-4.64L359,304.73v6.34l-5.4,2.2v9.9l5.4,2.13v6.19Zm7.42-2.16,7.92,3.1v-6.23Z" transform="translate(-333.51 -258.52)"/><path class="cls-3" d="M347.16,291.81a3,3,0,0,0-1,1.12,3.28,3.28,0,0,0-.38,1.55,4.13,4.13,0,0,0,1.22,3.19,5.09,5.09,0,0,0,6.41,0,4.13,4.13,0,0,0,1.22-3.19,2.91,2.91,0,0,0-.4-1.55,4.71,4.71,0,0,0-.94-1.12l3.74-3.56a6.88,6.88,0,0,1,1.82,3,11.17,11.17,0,0,1,.52,3.26,11,11,0,0,1-.65,3.8,9.15,9.15,0,0,1-1.85,3.1,8.69,8.69,0,0,1-2.9,2.07,9.83,9.83,0,0,1-7.56,0,8.69,8.69,0,0,1-2.9-2.07,9.16,9.16,0,0,1-1.85-3.1,11,11,0,0,1-.65-3.8,11.17,11.17,0,0,1,.52-3.26,6.89,6.89,0,0,1,1.82-3Z" transform="translate(-333.51 -258.52)"/><path class="cls-3" d="M345.82,273.48v4.75h5.83a10.88,10.88,0,0,0,1.31-.07,2.65,2.65,0,0,0,1-.32,1.64,1.64,0,0,0,.67-0.77,3.42,3.42,0,0,0,.23-1.39,9.26,9.26,0,0,0-.09-1.13,1.91,1.91,0,0,0-.41-1.06h4.5a8.15,8.15,0,0,1,.43,1.87,17.21,17.21,0,0,1,.11,1.91,10.36,10.36,0,0,1-.29,2.52,5.72,5.72,0,0,1-.92,2,4.29,4.29,0,0,1-1.64,1.35,5.59,5.59,0,0,1-2.45.49h-8.32v3.46H341.5v-3.46h-5.18v-5.4h5.18v-4.75h4.32Z" transform="translate(-333.51 -258.52)"/><path class="cls-3" d="M355.9,270.32a3.36,3.36,0,0,1-1.3-.25,3.18,3.18,0,0,1-1.76-1.76,3.46,3.46,0,0,1,0-2.59,3.18,3.18,0,0,1,1.76-1.76,3.46,3.46,0,0,1,2.59,0,3.19,3.19,0,0,1,1.76,1.76,3.46,3.46,0,0,1,0,2.59,3.19,3.19,0,0,1-1.76,1.76A3.36,3.36,0,0,1,355.9,270.32Z" transform="translate(-333.51 -258.52)"/><g class="cls-4"><g class="cls-5"><path class="cls-6" d="M377,286.3a8.27,8.27,0,1,0-8.27-8.27A8.27,8.27,0,0,0,377,286.3" transform="translate(-333.51 -258.52)"/></g></g><g class="cls-4"><g class="cls-7"><path class="cls-8" d="M377,332.6a8.27,8.27,0,1,0-8.27-8.27A8.27,8.27,0,0,0,377,332.6" transform="translate(-333.51 -258.52)"/></g></g><g class="cls-4"><g class="cls-9"><path class="cls-6" d="M388.35,316.07a8.27,8.27,0,1,0-8.27-8.27,8.27,8.27,0,0,0,8.27,8.27" transform="translate(-333.51 -258.52)"/></g></g><g class="cls-4"><g class="cls-10"><path class="cls-8" d="M406.78,280.87a8.27,8.27,0,1,0-8.27-8.27,8.27,8.27,0,0,0,8.27,8.27" transform="translate(-333.51 -258.52)"/></g></g><g class="cls-4"><g class="cls-11"><path class="cls-12" d="M404.65,300.71a8.27,8.27,0,1,0-8.27-8.27,8.27,8.27,0,0,0,8.27,8.27" transform="translate(-333.51 -258.52)"/></g></g><g class="cls-4"><g class="cls-13"><path class="cls-12" d="M412.68,332.13a6.61,6.61,0,1,0-6.61-6.61,6.61,6.61,0,0,0,6.61,6.61" transform="translate(-333.51 -258.52)"/></g></g><g class="cls-4"><g class="cls-14"><path class="cls-15" d="M379.14,320.79a6.61,6.61,0,1,0-6.61-6.61,6.61,6.61,0,0,0,6.61,6.61" transform="translate(-333.51 -258.52)"/></g></g><g class="cls-4"><g class="cls-16"><path class="cls-6" d="M409.37,288.9a6.61,6.61,0,1,0-6.61-6.61,6.61,6.61,0,0,0,6.61,6.61" transform="translate(-333.51 -258.52)"/></g></g><g class="cls-4"><g class="cls-17"><path class="cls-18" d="M397.56,275.44a8.46,8.46,0,1,0-8.46-8.46,8.46,8.46,0,0,0,8.46,8.46" transform="translate(-333.51 -258.52)"/></g></g><g class="cls-4"><g class="cls-19"><path class="cls-18" d="M389.53,332.84a6.61,6.61,0,1,0-6.61-6.61,6.61,6.61,0,0,0,6.61,6.61" transform="translate(-333.51 -258.52)"/></g></g><g class="cls-4"><g class="cls-20"><path class="cls-12" d="M378.07,273.35A4.37,4.37,0,1,0,373.7,269a4.37,4.37,0,0,0,4.37,4.37" transform="translate(-333.51 -258.52)"/></g></g><g class="cls-4"><g class="cls-21"><path class="cls-12" d="M405.43,269.1a4.37,4.37,0,1,0-4.37-4.37,4.37,4.37,0,0,0,4.37,4.37" transform="translate(-333.51 -258.52)"/></g></g><g class="cls-4"><g class="cls-22"><path class="cls-12" d="M384.22,327.63a4.37,4.37,0,1,0-4.37-4.37,4.37,4.37,0,0,0,4.37,4.37" transform="translate(-333.51 -258.52)"/></g></g><g class="cls-4"><g class="cls-23"><path class="cls-18" d="M396.19,306.85a6.61,6.61,0,1,0-6.61-6.61,6.61,6.61,0,0,0,6.61,6.61" transform="translate(-333.51 -258.52)"/></g></g><g class="cls-4"><g class="cls-24"><path class="cls-15" d="M396.92,300.28a4.37,4.37,0,1,0-4.37-4.37,4.37,4.37,0,0,0,4.37,4.37" transform="translate(-333.51 -258.52)"/></g></g><g class="cls-4"><g class="cls-25"><path class="cls-15" d="M412.8,282.76a4.37,4.37,0,1,0-4.37-4.37,4.37,4.37,0,0,0,4.37,4.37" transform="translate(-333.51 -258.52)"/></g></g><g class="cls-4"><g class="cls-26"><path class="cls-18" d="M372.69,322a4.37,4.37,0,1,0-4.37-4.37,4.37,4.37,0,0,0,4.37,4.37" transform="translate(-333.51 -258.52)"/></g></g><g class="cls-4"><g class="cls-27"><path class="cls-6" d="M408.12,331.74a4.37,4.37,0,1,0-4.37-4.37,4.37,4.37,0,0,0,4.37,4.37" transform="translate(-333.51 -258.52)"/></g></g><g class="cls-4"><g class="cls-28"><path class="cls-8" d="M385.56,277.28a6.61,6.61,0,1,0-6.61-6.61,6.61,6.61,0,0,0,6.61,6.61" transform="translate(-333.51 -258.52)"/></g></g><g class="cls-4"><g class="cls-29"><path class="cls-12" d="M400.16,333.83a8.46,8.46,0,1,0-8.46-8.46,8.46,8.46,0,0,0,8.46,8.46" transform="translate(-333.51 -258.52)"/></g></g><g class="cls-4"><g class="cls-30"><path class="cls-8" d="M403.4,326.7a3.48,3.48,0,1,0-3.48-3.48,3.48,3.48,0,0,0,3.48,3.48" transform="translate(-333.51 -258.52)"/></g></g><g class="cls-4"><g class="cls-31"><path class="cls-15" d="M388.1,267.32a3.48,3.48,0,1,0-3.48-3.48,3.48,3.48,0,0,0,3.48,3.48" transform="translate(-333.51 -258.52)"/></g></g><g class="cls-4"><g class="cls-32"><path class="cls-15" d="M373.07,284.9a3.48,3.48,0,1,0-3.48-3.48,3.48,3.48,0,0,0,3.48,3.48" transform="translate(-333.51 -258.52)"/></g></g><g class="cls-4"><g class="cls-33"><path class="cls-15" d="M371.51,332.8a3.48,3.48,0,1,0-3.48-3.48,3.48,3.48,0,0,0,3.48,3.48" transform="translate(-333.51 -258.52)"/></g></g><g class="cls-4"><g class="cls-34"><path class="cls-18" d="M415,332.8a3.48,3.48,0,1,0-3.48-3.48A3.48,3.48,0,0,0,415,332.8" transform="translate(-333.51 -258.52)"/></g></g><g class="cls-4"><g class="cls-35"><path class="cls-18" d="M410.79,292.3a6.61,6.61,0,1,0-6.61-6.61,6.61,6.61,0,0,0,6.61,6.61" transform="translate(-333.51 -258.52)"/></g></g><g class="cls-4"><g class="cls-36"><path class="cls-18" d="M377.77,282.52a6.61,6.61,0,1,0-6.61-6.61,6.61,6.61,0,0,0,6.61,6.61" transform="translate(-333.51 -258.52)"/></g></g><g class="cls-4"><g class="cls-37"><path class="cls-12" d="M458.56,304.49A8.46,8.46,0,1,0,450.1,296a8.46,8.46,0,0,0,8.46,8.46" transform="translate(-333.51 -258.52)"/></g></g><g class="cls-4"><g class="cls-38"><path class="cls-18" d="M451.89,273.59a6.61,6.61,0,1,0-6.61-6.61,6.61,6.61,0,0,0,6.61,6.61" transform="translate(-333.51 -258.52)"/></g></g><g class="cls-4"><g class="cls-39"><path class="cls-18" d="M468.9,316.07a6.61,6.61,0,1,0-6.61-6.61,6.61,6.61,0,0,0,6.61,6.61" transform="translate(-333.51 -258.52)"/></g></g><g class="cls-4"><g class="cls-40"><path class="cls-6" d="M437.82,329.06a8.27,8.27,0,1,0-8.27-8.27,8.27,8.27,0,0,0,8.27,8.27" transform="translate(-333.51 -258.52)"/></g></g><g class="cls-4"><g class="cls-41"><path class="cls-6" d="M461.82,278.32a8.27,8.27,0,1,0-8.27-8.27,8.27,8.27,0,0,0,8.27,8.27" transform="translate(-333.51 -258.52)"/></g></g><g class="cls-4"><g class="cls-42"><path class="cls-8" d="M466.21,293.15a6.61,6.61,0,1,0-6.61-6.61,6.61,6.61,0,0,0,6.61,6.61" transform="translate(-333.51 -258.52)"/></g></g><g class="cls-4"><g class="cls-43"><path class="cls-8" d="M450,332.84a6.61,6.61,0,1,0-6.61-6.61,6.61,6.61,0,0,0,6.61,6.61" transform="translate(-333.51 -258.52)"/></g></g><g class="cls-4"><g class="cls-44"><path class="cls-8" d="M436.16,279a6.61,6.61,0,1,0-6.61-6.61,6.61,6.61,0,0,0,6.61,6.61" transform="translate(-333.51 -258.52)"/></g></g><g class="cls-4"><g class="cls-45"><path class="cls-15" d="M456,268.59a4.37,4.37,0,1,0-4.37-4.37,4.37,4.37,0,0,0,4.37,4.37" transform="translate(-333.51 -258.52)"/></g></g><g class="cls-4"><g class="cls-46"><path class="cls-15" d="M464.1,307.56a4.37,4.37,0,1,0-4.37-4.37,4.37,4.37,0,0,0,4.37,4.37" transform="translate(-333.51 -258.52)"/></g></g><g class="cls-4"><g class="cls-47"><path class="cls-15" d="M441.85,332a4.37,4.37,0,1,0-4.37-4.37,4.37,4.37,0,0,0,4.37,4.37" transform="translate(-333.51 -258.52)"/></g></g><g class="cls-4"><g class="cls-48"><path class="cls-18" d="M465.09,284.41a4.37,4.37,0,1,0-4.37-4.37,4.37,4.37,0,0,0,4.37,4.37" transform="translate(-333.51 -258.52)"/></g></g><g class="cls-4"><g class="cls-49"><path class="cls-18" d="M452.48,299.57a4.37,4.37,0,1,0-4.37-4.37,4.37,4.37,0,0,0,4.37,4.37" transform="translate(-333.51 -258.52)"/></g></g><g class="cls-4"><g class="cls-50"><path class="cls-18" d="M439.72,320.43a4.37,4.37,0,1,0-4.37-4.37,4.37,4.37,0,0,0,4.37,4.37" transform="translate(-333.51 -258.52)"/></g></g><g class="cls-4"><g class="cls-51"><path class="cls-12" d="M442.21,274.73a6.61,6.61,0,1,0-6.61-6.61,6.61,6.61,0,0,0,6.61,6.61" transform="translate(-333.51 -258.52)"/></g></g><g class="cls-4"><g class="cls-52"><path class="cls-6" d="M436.84,270.71a3.48,3.48,0,1,0-3.48-3.48,3.48,3.48,0,0,0,3.48,3.48" transform="translate(-333.51 -258.52)"/></g></g><g class="cls-4"><g class="cls-53"><path class="cls-6" d="M465.48,319.55a3.48,3.48,0,1,0-3.48-3.48,3.48,3.48,0,0,0,3.48,3.48" transform="translate(-333.51 -258.52)"/></g></g><g class="cls-4"><g class="cls-54"><path class="cls-6" d="M447.91,301.9a3.48,3.48,0,1,0-3.48-3.48,3.48,3.48,0,0,0,3.48,3.48" transform="translate(-333.51 -258.52)"/></g></g><g class="cls-4"><g class="cls-55"><path class="cls-8" d="M469.61,324.1a8.27,8.27,0,1,0-8.27-8.27,8.27,8.27,0,0,0,8.27,8.27" transform="translate(-333.51 -258.52)"/></g></g><g class="cls-4"><g class="cls-56"><path class="cls-12" d="M467.91,280a6.61,6.61,0,1,0-6.61-6.61,6.61,6.61,0,0,0,6.61,6.61" transform="translate(-333.51 -258.52)"/></g></g><g class="cls-4"><g class="cls-57"><path class="cls-6" d="M469.45,304.74a3.48,3.48,0,1,0-3.48-3.48,3.48,3.48,0,0,0,3.48,3.48" transform="translate(-333.51 -258.52)"/></g></g><g class="cls-4"><g class="cls-58"><path class="cls-15" d="M457.44,332.6a5.5,5.5,0,1,0-5.5-5.5,5.5,5.5,0,0,0,5.5,5.5" transform="translate(-333.51 -258.52)"/></g></g><g class="cls-4"><g class="cls-59"><path class="cls-15" d="M448.51,299.57a5.5,5.5,0,1,0-5.5-5.5,5.5,5.5,0,0,0,5.5,5.5" transform="translate(-333.51 -258.52)"/></g></g><g class="cls-4"><g class="cls-60"><path class="cls-6" d="M472.43,285.59a3.48,3.48,0,1,0-3.48-3.48,3.48,3.48,0,0,0,3.48,3.48" transform="translate(-333.51 -258.52)"/></g></g><g class="cls-4"><g class="cls-61"><path class="cls-12" d="M463.94,329.44a6.61,6.61,0,1,0-6.61-6.61,6.61,6.61,0,0,0,6.61,6.61" transform="translate(-333.51 -258.52)"/></g></g><g class="cls-4"><g class="cls-62"><path class="cls-18" d="M440.25,280.5a3.48,3.48,0,1,0-3.48-3.48,3.48,3.48,0,0,0,3.48,3.48" transform="translate(-333.51 -258.52)"/></g></g></g></g></svg>