<svg id="Calque_1" data-name="Calque 1" xmlns="http://www.w3.org/2000/svg" xmlns:xlink="http://www.w3.org/1999/xlink" viewBox="0 0 785 409.48"><defs><style>.cls-1{fill:none;}.cls-2{clip-path:url(#clip-path);}.cls-3{clip-path:url(#clip-path-2);}.cls-4{fill:#fff;}.cls-5{opacity:0.8;}.cls-6{clip-path:url(#clip-path-3);}.cls-7{fill:#c79737;}.cls-8{clip-path:url(#clip-path-4);}.cls-9{fill:#249185;}.cls-10{clip-path:url(#clip-path-5);}.cls-11{clip-path:url(#clip-path-6);}.cls-12{clip-path:url(#clip-path-7);}.cls-13{fill:#c7285f;}.cls-14{clip-path:url(#clip-path-8);}.cls-15{clip-path:url(#clip-path-9);}.cls-16{fill:#bd7795;}.cls-17{clip-path:url(#clip-path-10);}.cls-18{clip-path:url(#clip-path-11);}.cls-19{fill:#277ab6;}.cls-20{clip-path:url(#clip-path-12);}.cls-21{clip-path:url(#clip-path-13);}.cls-22{clip-path:url(#clip-path-14);}.cls-23{clip-path:url(#clip-path-15);}.cls-24{clip-path:url(#clip-path-16);}.cls-25{clip-path:url(#clip-path-17);}.cls-26{clip-path:url(#clip-path-18);}.cls-27{clip-path:url(#clip-path-19);}.cls-28{clip-path:url(#clip-path-20);}.cls-29{clip-path:url(#clip-path-21);}.cls-30{clip-path:url(#clip-path-22);}.cls-31{clip-path:url(#clip-path-23);}.cls-32{clip-path:url(#clip-path-24);}.cls-33{clip-path:url(#clip-path-25);}.cls-34{clip-path:url(#clip-path-26);}.cls-35{clip-path:url(#clip-path-27);}.cls-36{clip-path:url(#clip-path-28);}.cls-37{clip-path:url(#clip-path-29);}.cls-38{clip-path:url(#clip-path-30);}.cls-39{clip-path:url(#clip-path-31);}.cls-40{clip-path:url(#clip-path-32);}.cls-41{clip-path:url(#clip-path-33);}.cls-42{clip-path:url(#clip-path-34);}.cls-43{clip-path:url(#clip-path-35);}.cls-44{clip-path:url(#clip-path-36);}.cls-45{clip-path:url(#clip-path-37);}.cls-46{clip-path:url(#clip-path-38);}.cls-47{clip-path:url(#clip-path-39);}.cls-48{clip-path:url(#clip-path-40);}.cls-49{clip-path:url(#clip-path-41);}.cls-50{clip-path:url(#clip-path-42);}.cls-51{clip-path:url(#clip-path-43);}.cls-52{clip-path:url(#clip-path-44);}.cls-53{clip-path:url(#clip-path-45);}.cls-54{clip-path:url(#clip-path-46);}.cls-55{clip-path:url(#clip-path-47);}.cls-56{clip-path:url(#clip-path-48);}.cls-57{clip-path:url(#clip-path-49);}.cls-58{clip-path:url(#clip-path-50);}.cls-59{clip-path:url(#clip-path-51);}.cls-60{clip-path:url(#clip-path-52);}.cls-61{clip-path:url(#clip-path-53);}.cls-62{clip-path:url(#clip-path-54);}.cls-63{clip-path:url(#clip-path-55);}</style><clipPath id="clip-path" transform="translate(-57.16 -95.89)"><rect class="cls-1" y="95.89" width="842.16" height="411.93"/></clipPath><clipPath id="clip-path-2" transform="translate(-57.16 -95.89)"><rect class="cls-1" y="95.89" width="842.16" height="411.93"/></clipPath><clipPath id="clip-path-3" transform="translate(-57.16 -95.89)"><rect class="cls-1" x="199.8" y="118.96" width="187.79" height="133.41"/></clipPath><clipPath id="clip-path-4" transform="translate(-57.16 -95.89)"><rect class="cls-1" x="199.8" y="370.72" width="187.79" height="133.41"/></clipPath><clipPath id="clip-path-5" transform="translate(-57.16 -95.89)"><rect class="cls-1" x="261.45" y="280.81" width="187.79" height="133.41"/></clipPath><clipPath id="clip-path-6" transform="translate(-57.16 -95.89)"><rect class="cls-1" x="361.64" y="89.42" width="187.79" height="133.41"/></clipPath><clipPath id="clip-path-7" transform="translate(-57.16 -95.89)"><rect class="cls-1" x="350.08" y="197.32" width="187.79" height="133.41"/></clipPath><clipPath id="clip-path-8" transform="translate(-57.16 -95.89)"><rect class="cls-1" x="402.74" y="386.13" width="169.8" height="115.43"/></clipPath><clipPath id="clip-path-9" transform="translate(-57.16 -95.89)"><rect class="cls-1" x="220.35" y="324.48" width="169.81" height="115.43"/></clipPath><clipPath id="clip-path-10" transform="translate(-57.16 -95.89)"><rect class="cls-1" x="384.76" y="151.07" width="169.8" height="115.43"/></clipPath><clipPath id="clip-path-11" transform="translate(-57.16 -95.89)"><rect class="cls-1" x="310.52" y="57.82" width="189.84" height="135.47"/></clipPath><clipPath id="clip-path-12" transform="translate(-57.16 -95.89)"><rect class="cls-1" x="276.87" y="389.98" width="169.81" height="115.43"/></clipPath><clipPath id="clip-path-13" transform="translate(-57.16 -95.89)"><rect class="cls-1" x="226.77" y="90.96" width="145.36" height="90.98"/></clipPath><clipPath id="clip-path-14" transform="translate(-57.16 -95.89)"><rect class="cls-1" x="375.51" y="67.84" width="145.36" height="90.98"/></clipPath><clipPath id="clip-path-15" transform="translate(-57.16 -95.89)"><rect class="cls-1" x="260.21" y="386.13" width="145.36" height="90.98"/></clipPath><clipPath id="clip-path-16" transform="translate(-57.16 -95.89)"><rect class="cls-1" x="313.09" y="248.69" width="169.81" height="115.43"/></clipPath><clipPath id="clip-path-17" transform="translate(-57.16 -95.89)"><rect class="cls-1" x="329.27" y="237.39" width="145.36" height="90.98"/></clipPath><clipPath id="clip-path-18" transform="translate(-57.16 -95.89)"><rect class="cls-1" x="415.59" y="142.13" width="145.36" height="90.98"/></clipPath><clipPath id="clip-path-19" transform="translate(-57.16 -95.89)"><rect class="cls-1" x="197.49" y="355.3" width="145.36" height="90.98"/></clipPath><clipPath id="clip-path-20" transform="translate(-57.16 -95.89)"><rect class="cls-1" x="390.15" y="408.48" width="145.36" height="90.98"/></clipPath><clipPath id="clip-path-21" transform="translate(-57.16 -95.89)"><rect class="cls-1" x="255.29" y="87.88" width="169.81" height="115.43"/></clipPath><clipPath id="clip-path-22" transform="translate(-57.16 -95.89)"><rect class="cls-1" x="324.65" y="375.34" width="189.84" height="135.47"/></clipPath><clipPath id="clip-path-23" transform="translate(-57.16 -95.89)"><rect class="cls-1" x="369.35" y="390.7" width="135.7" height="81.32"/></clipPath><clipPath id="clip-path-24" transform="translate(-57.16 -95.89)"><rect class="cls-1" x="286.11" y="67.84" width="135.7" height="81.32"/></clipPath><clipPath id="clip-path-25" transform="translate(-57.16 -95.89)"><rect class="cls-1" x="204.42" y="163.41" width="135.7" height="81.32"/></clipPath><clipPath id="clip-path-26" transform="translate(-57.16 -95.89)"><rect class="cls-1" x="195.94" y="423.89" width="135.7" height="81.32"/></clipPath><clipPath id="clip-path-27" transform="translate(-57.16 -95.89)"><rect class="cls-1" x="432.54" y="423.89" width="135.7" height="81.32"/></clipPath><clipPath id="clip-path-28" transform="translate(-57.16 -95.89)"><rect class="cls-1" x="392.47" y="169.57" width="169.81" height="115.43"/></clipPath><clipPath id="clip-path-29" transform="translate(-57.16 -95.89)"><rect class="cls-1" x="212.9" y="116.39" width="169.81" height="115.43"/></clipPath><clipPath id="clip-path-30" transform="translate(-57.16 -95.89)"><rect class="cls-1" x="642.16" y="215.81" width="189.85" height="135.47"/></clipPath><clipPath id="clip-path-31" transform="translate(-57.16 -95.89)"><rect class="cls-1" x="615.97" y="67.84" width="169.8" height="115.43"/></clipPath><clipPath id="clip-path-32" transform="translate(-57.16 -95.89)"><rect class="cls-1" x="708.44" y="298.79" width="169.81" height="115.43"/></clipPath><clipPath id="clip-path-33" transform="translate(-57.16 -95.89)"><rect class="cls-1" x="530.42" y="351.45" width="187.79" height="133.41"/></clipPath><clipPath id="clip-path-34" transform="translate(-57.16 -95.89)"><rect class="cls-1" x="660.92" y="75.55" width="187.79" height="133.41"/></clipPath><clipPath id="clip-path-35" transform="translate(-57.16 -95.89)"><rect class="cls-1" x="693.8" y="174.2" width="169.81" height="115.43"/></clipPath><clipPath id="clip-path-36" transform="translate(-57.16 -95.89)"><rect class="cls-1" x="605.69" y="389.98" width="169.8" height="115.43"/></clipPath><clipPath id="clip-path-37" transform="translate(-57.16 -95.89)"><rect class="cls-1" x="530.42" y="97.13" width="169.81" height="115.43"/></clipPath><clipPath id="clip-path-38" transform="translate(-57.16 -95.89)"><rect class="cls-1" x="650.64" y="65.06" width="145.36" height="90.98"/></clipPath><clipPath id="clip-path-39" transform="translate(-57.16 -95.89)"><rect class="cls-1" x="694.57" y="276.99" width="145.36" height="90.98"/></clipPath><clipPath id="clip-path-40" transform="translate(-57.16 -95.89)"><rect class="cls-1" x="573.57" y="410.02" width="145.36" height="90.98"/></clipPath><clipPath id="clip-path-41" transform="translate(-57.16 -95.89)"><rect class="cls-1" x="699.96" y="151.07" width="145.36" height="90.98"/></clipPath><clipPath id="clip-path-42" transform="translate(-57.16 -95.89)"><rect class="cls-1" x="631.38" y="233.54" width="145.36" height="90.98"/></clipPath><clipPath id="clip-path-43" transform="translate(-57.16 -95.89)"><rect class="cls-1" x="562.01" y="346.98" width="145.36" height="90.98"/></clipPath><clipPath id="clip-path-44" transform="translate(-57.16 -95.89)"><rect class="cls-1" x="563.3" y="74.01" width="169.81" height="115.43"/></clipPath><clipPath id="clip-path-45" transform="translate(-57.16 -95.89)"><rect class="cls-1" x="551.17" y="86.28" width="135.69" height="81.32"/></clipPath><clipPath id="clip-path-46" transform="translate(-57.16 -95.89)"><rect class="cls-1" x="706.9" y="351.81" width="135.69" height="81.32"/></clipPath><clipPath id="clip-path-47" transform="translate(-57.16 -95.89)"><rect class="cls-1" x="611.34" y="255.89" width="135.69" height="81.32"/></clipPath><clipPath id="clip-path-48" transform="translate(-57.16 -95.89)"><rect class="cls-1" x="703.31" y="324.48" width="187.79" height="133.41"/></clipPath><clipPath id="clip-path-49" transform="translate(-57.16 -95.89)"><rect class="cls-1" x="703.05" y="102.52" width="169.81" height="115.43"/></clipPath><clipPath id="clip-path-50" transform="translate(-57.16 -95.89)"><rect class="cls-1" x="728.48" y="271.3" width="135.7" height="81.32"/></clipPath><clipPath id="clip-path-51" transform="translate(-57.16 -95.89)"><rect class="cls-1" x="652.18" y="400.77" width="157.69" height="103.31"/></clipPath><clipPath id="clip-path-52" transform="translate(-57.16 -95.89)"><rect class="cls-1" x="603.63" y="221.21" width="157.69" height="103.31"/></clipPath><clipPath id="clip-path-53" transform="translate(-57.16 -95.89)"><rect class="cls-1" x="744.67" y="167.2" width="135.69" height="81.32"/></clipPath><clipPath id="clip-path-54" transform="translate(-57.16 -95.89)"><rect class="cls-1" x="681.47" y="371.49" width="169.8" height="115.43"/></clipPath><clipPath id="clip-path-55" transform="translate(-57.16 -95.89)"><rect class="cls-1" x="569.72" y="139.51" width="135.69" height="81.32"/></clipPath></defs><title>logo</title><g class="cls-2"><g class="cls-3"><path class="cls-4" d="M57.16,432.69V407.44l138.59-60.29V381.6l-29.36,11.94v53.83l29.36,11.55v33.67Zm40.32-11.75,43.07,16.83V403.91Z" transform="translate(-57.16 -95.89)"/><path class="cls-4" d="M131.35,276.87a16.5,16.5,0,0,0-5.19,6.07,17.85,17.85,0,0,0-2.06,8.42q0,11.16,6.66,17.32t17.42,6.17q10.77,0,17.42-6.17t6.66-17.32a15.82,15.82,0,0,0-2.15-8.42,25.67,25.67,0,0,0-5.09-6.07l20.36-19.38a37.45,37.45,0,0,1,9.89,16.15,60.77,60.77,0,0,1,2.84,17.72A60,60,0,0,1,194.58,312a49.67,49.67,0,0,1-10.08,16.83,47.26,47.26,0,0,1-15.76,11.26,53.45,53.45,0,0,1-41.11,0,47.32,47.32,0,0,1-15.76-11.26A49.72,49.72,0,0,1,101.79,312a60,60,0,0,1-3.52-20.65,60.77,60.77,0,0,1,2.84-17.72A37.48,37.48,0,0,1,111,257.49Z" transform="translate(-57.16 -95.89)"/><path class="cls-4" d="M124.11,177.23v25.84h31.71a59.32,59.32,0,0,0,7.15-.39,14.37,14.37,0,0,0,5.58-1.76,8.88,8.88,0,0,0,3.62-4.21,18.62,18.62,0,0,0,1.27-7.54,50.57,50.57,0,0,0-.49-6.17,10.44,10.44,0,0,0-2.25-5.77h24.47a44.42,44.42,0,0,1,2.35,10.18,93.91,93.91,0,0,1,.59,10.38,56.47,56.47,0,0,1-1.57,13.7,31.2,31.2,0,0,1-5,11,23.36,23.36,0,0,1-8.91,7.34,30.44,30.44,0,0,1-13.31,2.64H124.11v18.79H100.62V232.43H72.43V203.07h28.19V177.23h23.49Z" transform="translate(-57.16 -95.89)"/><path class="cls-4" d="M178.92,160a18.32,18.32,0,0,1-7-1.37,17.31,17.31,0,0,1-9.59-9.59,18.81,18.81,0,0,1,0-14.09,17.31,17.31,0,0,1,9.59-9.59,18.81,18.81,0,0,1,14.09,0,17.31,17.31,0,0,1,9.59,9.59,18.81,18.81,0,0,1,0,14.09,17.3,17.3,0,0,1-9.59,9.59A18.3,18.3,0,0,1,178.92,160Z" transform="translate(-57.16 -95.89)"/><g class="cls-5"><g class="cls-6"><path class="cls-7" d="M293.69,246.94a45,45,0,1,0-45-45,45,45,0,0,0,45,45" transform="translate(-57.16 -95.89)"/></g></g><g class="cls-5"><g class="cls-8"><path class="cls-9" d="M293.69,498.69a45,45,0,1,0-45-45,45,45,0,0,0,45,45" transform="translate(-57.16 -95.89)"/></g></g><g class="cls-5"><g class="cls-10"><path class="cls-7" d="M355.35,408.78a45,45,0,1,0-45-45,45,45,0,0,0,45,45" transform="translate(-57.16 -95.89)"/></g></g><g class="cls-5"><g class="cls-11"><path class="cls-9" d="M455.53,217.4a45,45,0,1,0-45-45,45,45,0,0,0,45,45" transform="translate(-57.16 -95.89)"/></g></g><g class="cls-5"><g class="cls-12"><path class="cls-13" d="M444,325.29a45,45,0,1,0-45-45,45,45,0,0,0,45,45" transform="translate(-57.16 -95.89)"/></g></g><g class="cls-5"><g class="cls-14"><path class="cls-13" d="M487.65,496.12a36,36,0,1,0-36-36,36,36,0,0,0,36,36" transform="translate(-57.16 -95.89)"/></g></g><g class="cls-5"><g class="cls-15"><path class="cls-16" d="M305.25,434.47a36,36,0,1,0-36-36,36,36,0,0,0,36,36" transform="translate(-57.16 -95.89)"/></g></g><g class="cls-5"><g class="cls-17"><path class="cls-7" d="M469.66,261.07a36,36,0,1,0-36-36,36,36,0,0,0,36,36" transform="translate(-57.16 -95.89)"/></g></g><g class="cls-5"><g class="cls-18"><path class="cls-19" d="M405.44,187.85a46,46,0,1,0-46-46,46,46,0,0,0,46,46" transform="translate(-57.16 -95.89)"/></g></g><g class="cls-5"><g class="cls-20"><path class="cls-19" d="M361.77,500a36,36,0,1,0-36-36,36,36,0,0,0,36,36" transform="translate(-57.16 -95.89)"/></g></g><g class="cls-5"><g class="cls-21"><path class="cls-13" d="M299.45,176.51a23.74,23.74,0,1,0-23.74-23.74,23.74,23.74,0,0,0,23.74,23.74" transform="translate(-57.16 -95.89)"/></g></g><g class="cls-5"><g class="cls-22"><path class="cls-13" d="M448.19,153.39a23.74,23.74,0,1,0-23.74-23.74,23.74,23.74,0,0,0,23.74,23.74" transform="translate(-57.16 -95.89)"/></g></g><g class="cls-5"><g class="cls-23"><path class="cls-13" d="M332.89,471.68a23.74,23.74,0,1,0-23.74-23.74,23.74,23.74,0,0,0,23.74,23.74" transform="translate(-57.16 -95.89)"/></g></g><g class="cls-5"><g class="cls-24"><path class="cls-19" d="M398,358.69a36,36,0,1,0-36-36,36,36,0,0,0,36,36" transform="translate(-57.16 -95.89)"/></g></g><g class="cls-5"><g class="cls-25"><path class="cls-16" d="M402,322.94a23.74,23.74,0,1,0-23.74-23.74A23.74,23.74,0,0,0,402,322.94" transform="translate(-57.16 -95.89)"/></g></g><g class="cls-5"><g class="cls-26"><path class="cls-16" d="M488.27,227.67a23.74,23.74,0,1,0-23.74-23.74,23.74,23.74,0,0,0,23.74,23.74" transform="translate(-57.16 -95.89)"/></g></g><g class="cls-5"><g class="cls-27"><path class="cls-19" d="M270.17,440.85a23.74,23.74,0,1,0-23.74-23.74,23.74,23.74,0,0,0,23.74,23.74" transform="translate(-57.16 -95.89)"/></g></g><g class="cls-5"><g class="cls-28"><path class="cls-7" d="M462.83,494a23.74,23.74,0,1,0-23.74-23.74A23.74,23.74,0,0,0,462.83,494" transform="translate(-57.16 -95.89)"/></g></g><g class="cls-5"><g class="cls-29"><path class="cls-9" d="M340.19,197.87a36,36,0,1,0-36-36,36,36,0,0,0,36,36" transform="translate(-57.16 -95.89)"/></g></g><g class="cls-5"><g class="cls-30"><path class="cls-13" d="M419.57,505.37a46,46,0,1,0-46-46,46,46,0,0,0,46,46" transform="translate(-57.16 -95.89)"/></g></g><g class="cls-5"><g class="cls-31"><path class="cls-9" d="M437.19,466.58a18.91,18.91,0,1,0-18.91-18.91,18.91,18.91,0,0,0,18.91,18.91" transform="translate(-57.16 -95.89)"/></g></g><g class="cls-5"><g class="cls-32"><path class="cls-16" d="M354,143.72A18.91,18.91,0,1,0,335,124.81,18.91,18.91,0,0,0,354,143.72" transform="translate(-57.16 -95.89)"/></g></g><g class="cls-5"><g class="cls-33"><path class="cls-16" d="M272.27,239.29a18.91,18.91,0,1,0-18.91-18.91,18.91,18.91,0,0,0,18.91,18.91" transform="translate(-57.16 -95.89)"/></g></g><g class="cls-5"><g class="cls-34"><path class="cls-16" d="M263.79,499.78a18.91,18.91,0,1,0-18.91-18.91,18.91,18.91,0,0,0,18.91,18.91" transform="translate(-57.16 -95.89)"/></g></g><g class="cls-5"><g class="cls-35"><path class="cls-19" d="M500.39,499.78a18.91,18.91,0,1,0-18.91-18.91,18.91,18.91,0,0,0,18.91,18.91" transform="translate(-57.16 -95.89)"/></g></g><g class="cls-5"><g class="cls-36"><path class="cls-19" d="M477.37,279.56a36,36,0,1,0-36-36,36,36,0,0,0,36,36" transform="translate(-57.16 -95.89)"/></g></g><g class="cls-5"><g class="cls-37"><path class="cls-19" d="M297.8,226.39a36,36,0,1,0-36-36,36,36,0,0,0,36,36" transform="translate(-57.16 -95.89)"/></g></g><g class="cls-5"><g class="cls-38"><path class="cls-13" d="M737.09,345.84a46,46,0,1,0-46-46,46,46,0,0,0,46,46" transform="translate(-57.16 -95.89)"/></g></g><g class="cls-5"><g class="cls-39"><path class="cls-19" d="M700.87,177.83a36,36,0,1,0-36-36,36,36,0,0,0,36,36" transform="translate(-57.16 -95.89)"/></g></g><g class="cls-5"><g class="cls-40"><path class="cls-19" d="M793.35,408.78a36,36,0,1,0-36-36,36,36,0,0,0,36,36" transform="translate(-57.16 -95.89)"/></g></g><g class="cls-5"><g class="cls-41"><path class="cls-7" d="M624.31,479.43a45,45,0,1,0-45-45,45,45,0,0,0,45,45" transform="translate(-57.16 -95.89)"/></g></g><g class="cls-5"><g class="cls-42"><path class="cls-7" d="M754.81,203.52a45,45,0,1,0-45-45,45,45,0,0,0,45,45" transform="translate(-57.16 -95.89)"/></g></g><g class="cls-5"><g class="cls-43"><path class="cls-9" d="M778.7,284.19a36,36,0,1,0-36-36,36,36,0,0,0,36,36" transform="translate(-57.16 -95.89)"/></g></g><g class="cls-5"><g class="cls-44"><path class="cls-9" d="M690.59,500a36,36,0,1,0-36-36,36,36,0,0,0,36,36" transform="translate(-57.16 -95.89)"/></g></g><g class="cls-5"><g class="cls-45"><path class="cls-9" d="M615.32,207.12a36,36,0,1,0-36-36,36,36,0,0,0,36,36" transform="translate(-57.16 -95.89)"/></g></g><g class="cls-5"><g class="cls-46"><path class="cls-16" d="M723.32,150.6a23.74,23.74,0,1,0-23.74-23.74,23.74,23.74,0,0,0,23.74,23.74" transform="translate(-57.16 -95.89)"/></g></g><g class="cls-5"><g class="cls-47"><path class="cls-16" d="M767.25,362.54a23.74,23.74,0,1,0-23.74-23.74,23.74,23.74,0,0,0,23.74,23.74" transform="translate(-57.16 -95.89)"/></g></g><g class="cls-5"><g class="cls-48"><path class="cls-16" d="M646.26,495.57a23.74,23.74,0,1,0-23.74-23.74,23.74,23.74,0,0,0,23.74,23.74" transform="translate(-57.16 -95.89)"/></g></g><g class="cls-5"><g class="cls-49"><path class="cls-19" d="M772.65,236.62a23.74,23.74,0,1,0-23.74-23.74,23.74,23.74,0,0,0,23.74,23.74" transform="translate(-57.16 -95.89)"/></g></g><g class="cls-5"><g class="cls-50"><path class="cls-19" d="M704.06,319.08a23.74,23.74,0,1,0-23.74-23.74,23.74,23.74,0,0,0,23.74,23.74" transform="translate(-57.16 -95.89)"/></g></g><g class="cls-5"><g class="cls-51"><path class="cls-19" d="M634.7,432.52A23.74,23.74,0,1,0,611,408.78a23.74,23.74,0,0,0,23.74,23.74" transform="translate(-57.16 -95.89)"/></g></g><g class="cls-5"><g class="cls-52"><path class="cls-13" d="M648.2,184a36,36,0,1,0-36-36,36,36,0,0,0,36,36" transform="translate(-57.16 -95.89)"/></g></g><g class="cls-5"><g class="cls-53"><path class="cls-7" d="M619,162.16a18.91,18.91,0,1,0-18.91-18.91A18.91,18.91,0,0,0,619,162.16" transform="translate(-57.16 -95.89)"/></g></g><g class="cls-5"><g class="cls-54"><path class="cls-7" d="M774.75,427.69a18.91,18.91,0,1,0-18.91-18.91,18.91,18.91,0,0,0,18.91,18.91" transform="translate(-57.16 -95.89)"/></g></g><g class="cls-5"><g class="cls-55"><path class="cls-7" d="M679.19,331.77a18.91,18.91,0,1,0-18.91-18.91,18.91,18.91,0,0,0,18.91,18.91" transform="translate(-57.16 -95.89)"/></g></g><g class="cls-5"><g class="cls-56"><path class="cls-9" d="M797.2,452.45a45,45,0,1,0-45-45,45,45,0,0,0,45,45" transform="translate(-57.16 -95.89)"/></g></g><g class="cls-5"><g class="cls-57"><path class="cls-13" d="M788,212.52a36,36,0,1,0-36-36,36,36,0,0,0,36,36" transform="translate(-57.16 -95.89)"/></g></g><g class="cls-5"><g class="cls-58"><path class="cls-7" d="M796.33,347.18a18.91,18.91,0,1,0-18.91-18.91,18.91,18.91,0,0,0,18.91,18.91" transform="translate(-57.16 -95.89)"/></g></g><g class="cls-5"><g class="cls-59"><path class="cls-16" d="M731,498.65a29.91,29.91,0,1,0-29.91-29.91A29.9,29.9,0,0,0,731,498.65" transform="translate(-57.16 -95.89)"/></g></g><g class="cls-5"><g class="cls-60"><path class="cls-16" d="M682.48,319.08a29.91,29.91,0,1,0-29.91-29.91,29.9,29.9,0,0,0,29.91,29.91" transform="translate(-57.16 -95.89)"/></g></g><g class="cls-5"><g class="cls-61"><path class="cls-7" d="M812.51,243.09a18.91,18.91,0,1,0-18.91-18.91,18.91,18.91,0,0,0,18.91,18.91" transform="translate(-57.16 -95.89)"/></g></g><g class="cls-5"><g class="cls-62"><path class="cls-13" d="M766.37,481.48a36,36,0,1,0-36-36,36,36,0,0,0,36,36" transform="translate(-57.16 -95.89)"/></g></g><g class="cls-5"><g class="cls-63"><path class="cls-19" d="M637.57,215.4a18.91,18.91,0,1,0-18.91-18.91,18.91,18.91,0,0,0,18.91,18.91" transform="translate(-57.16 -95.89)"/></g></g></g></g></svg>